<mxfile host="app.diagrams.net" modified="2022-10-05T08:26:56.324Z" agent="5.0 (Windows NT 6.3; Win64; x64) AppleWebKit/537.36 (KHTML, like Gecko) Chrome/105.0.0.0 Safari/537.36" etag="EOGw0xdAN-StF48IbDyx" version="20.4.0" type="github">
  <diagram name="Page-1" id="2a216829-ef6e-dabb-86c1-c78162f3ba2b">
    <mxGraphModel dx="1108" dy="425" grid="1" gridSize="10" guides="1" tooltips="1" connect="1" arrows="1" fold="1" page="1" pageScale="1" pageWidth="850" pageHeight="1100" background="none" math="0" shadow="0">
      <root>
        <mxCell id="0" />
        <mxCell id="1" parent="0" />
        <mxCell id="4nwm7U9i_mTn2Jjd7FYN-4" value="" style="edgeStyle=orthogonalEdgeStyle;rounded=0;orthogonalLoop=1;jettySize=auto;html=1;" edge="1" parent="1" source="4nwm7U9i_mTn2Jjd7FYN-1" target="4nwm7U9i_mTn2Jjd7FYN-3">
          <mxGeometry relative="1" as="geometry" />
        </mxCell>
        <mxCell id="4nwm7U9i_mTn2Jjd7FYN-1" value="Start" style="ellipse;whiteSpace=wrap;html=1;aspect=fixed;" vertex="1" parent="1">
          <mxGeometry x="40" y="240" width="40" height="40" as="geometry" />
        </mxCell>
        <mxCell id="4nwm7U9i_mTn2Jjd7FYN-2" value="End" style="ellipse;whiteSpace=wrap;html=1;aspect=fixed;" vertex="1" parent="1">
          <mxGeometry x="780" y="310" width="40" height="40" as="geometry" />
        </mxCell>
        <mxCell id="4nwm7U9i_mTn2Jjd7FYN-6" value="" style="edgeStyle=orthogonalEdgeStyle;rounded=0;orthogonalLoop=1;jettySize=auto;html=1;" edge="1" parent="1" source="4nwm7U9i_mTn2Jjd7FYN-3" target="4nwm7U9i_mTn2Jjd7FYN-5">
          <mxGeometry relative="1" as="geometry" />
        </mxCell>
        <mxCell id="4nwm7U9i_mTn2Jjd7FYN-3" value="Sales Dept Recieves Request" style="whiteSpace=wrap;html=1;" vertex="1" parent="1">
          <mxGeometry x="30" y="340" width="120" height="60" as="geometry" />
        </mxCell>
        <mxCell id="4nwm7U9i_mTn2Jjd7FYN-8" value="" style="edgeStyle=orthogonalEdgeStyle;rounded=0;orthogonalLoop=1;jettySize=auto;html=1;" edge="1" parent="1" source="4nwm7U9i_mTn2Jjd7FYN-5" target="4nwm7U9i_mTn2Jjd7FYN-7">
          <mxGeometry relative="1" as="geometry" />
        </mxCell>
        <mxCell id="4nwm7U9i_mTn2Jjd7FYN-5" value="Process Request And Talks to Customer" style="whiteSpace=wrap;html=1;" vertex="1" parent="1">
          <mxGeometry x="210" y="340" width="120" height="60" as="geometry" />
        </mxCell>
        <mxCell id="4nwm7U9i_mTn2Jjd7FYN-10" value="" style="edgeStyle=orthogonalEdgeStyle;rounded=0;orthogonalLoop=1;jettySize=auto;html=1;" edge="1" parent="1" source="4nwm7U9i_mTn2Jjd7FYN-7" target="4nwm7U9i_mTn2Jjd7FYN-9">
          <mxGeometry relative="1" as="geometry">
            <mxPoint x="450" y="280" as="targetPoint" />
          </mxGeometry>
        </mxCell>
        <mxCell id="4nwm7U9i_mTn2Jjd7FYN-14" value="" style="edgeStyle=orthogonalEdgeStyle;rounded=0;orthogonalLoop=1;jettySize=auto;html=1;" edge="1" parent="1" source="4nwm7U9i_mTn2Jjd7FYN-7" target="4nwm7U9i_mTn2Jjd7FYN-13">
          <mxGeometry relative="1" as="geometry" />
        </mxCell>
        <mxCell id="4nwm7U9i_mTn2Jjd7FYN-7" value="If Satisfied" style="rhombus;whiteSpace=wrap;html=1;" vertex="1" parent="1">
          <mxGeometry x="410" y="330" width="80" height="80" as="geometry" />
        </mxCell>
        <mxCell id="4nwm7U9i_mTn2Jjd7FYN-11" style="edgeStyle=orthogonalEdgeStyle;rounded=0;orthogonalLoop=1;jettySize=auto;html=1;" edge="1" parent="1" source="4nwm7U9i_mTn2Jjd7FYN-9" target="4nwm7U9i_mTn2Jjd7FYN-2">
          <mxGeometry relative="1" as="geometry">
            <Array as="points">
              <mxPoint x="570" y="240" />
              <mxPoint x="570" y="240" />
            </Array>
          </mxGeometry>
        </mxCell>
        <mxCell id="4nwm7U9i_mTn2Jjd7FYN-9" value="Informs Customer&amp;nbsp; About rejecting Request" style="whiteSpace=wrap;html=1;" vertex="1" parent="1">
          <mxGeometry x="410" y="210" width="120" height="60" as="geometry" />
        </mxCell>
        <mxCell id="4nwm7U9i_mTn2Jjd7FYN-12" value="No" style="text;html=1;align=center;verticalAlign=middle;resizable=0;points=[];autosize=1;strokeColor=none;fillColor=none;" vertex="1" parent="1">
          <mxGeometry x="450" y="295" width="40" height="30" as="geometry" />
        </mxCell>
        <mxCell id="4nwm7U9i_mTn2Jjd7FYN-16" value="" style="edgeStyle=orthogonalEdgeStyle;rounded=0;orthogonalLoop=1;jettySize=auto;html=1;" edge="1" parent="1" source="4nwm7U9i_mTn2Jjd7FYN-13" target="4nwm7U9i_mTn2Jjd7FYN-15">
          <mxGeometry relative="1" as="geometry" />
        </mxCell>
        <mxCell id="4nwm7U9i_mTn2Jjd7FYN-13" value="Creates Sale Order And Fills The Time Deadline Info" style="whiteSpace=wrap;html=1;" vertex="1" parent="1">
          <mxGeometry x="530" y="340" width="120" height="60" as="geometry" />
        </mxCell>
        <mxCell id="4nwm7U9i_mTn2Jjd7FYN-25" value="" style="edgeStyle=orthogonalEdgeStyle;rounded=0;orthogonalLoop=1;jettySize=auto;html=1;" edge="1" parent="1" source="4nwm7U9i_mTn2Jjd7FYN-15" target="4nwm7U9i_mTn2Jjd7FYN-24">
          <mxGeometry relative="1" as="geometry" />
        </mxCell>
        <mxCell id="4nwm7U9i_mTn2Jjd7FYN-15" value="Sends Sale Ordcer To Scheduling Dept" style="whiteSpace=wrap;html=1;" vertex="1" parent="1">
          <mxGeometry x="660" y="420" width="120" height="60" as="geometry" />
        </mxCell>
        <mxCell id="4nwm7U9i_mTn2Jjd7FYN-29" style="edgeStyle=orthogonalEdgeStyle;rounded=0;orthogonalLoop=1;jettySize=auto;html=1;entryX=0.5;entryY=0;entryDx=0;entryDy=0;" edge="1" parent="1" source="4nwm7U9i_mTn2Jjd7FYN-24" target="4nwm7U9i_mTn2Jjd7FYN-26">
          <mxGeometry relative="1" as="geometry">
            <mxPoint x="100" y="530" as="targetPoint" />
          </mxGeometry>
        </mxCell>
        <mxCell id="4nwm7U9i_mTn2Jjd7FYN-24" value="Asks Raw Mat Warehouse for Inv checks" style="whiteSpace=wrap;html=1;" vertex="1" parent="1">
          <mxGeometry x="40" y="440" width="120" height="60" as="geometry" />
        </mxCell>
        <mxCell id="4nwm7U9i_mTn2Jjd7FYN-34" style="edgeStyle=orthogonalEdgeStyle;rounded=0;orthogonalLoop=1;jettySize=auto;html=1;entryX=0.5;entryY=0;entryDx=0;entryDy=0;entryPerimeter=0;" edge="1" parent="1" source="4nwm7U9i_mTn2Jjd7FYN-26" target="4nwm7U9i_mTn2Jjd7FYN-33">
          <mxGeometry relative="1" as="geometry" />
        </mxCell>
        <mxCell id="4nwm7U9i_mTn2Jjd7FYN-38" value="" style="edgeStyle=orthogonalEdgeStyle;rounded=0;orthogonalLoop=1;jettySize=auto;html=1;" edge="1" parent="1" source="4nwm7U9i_mTn2Jjd7FYN-26" target="4nwm7U9i_mTn2Jjd7FYN-37">
          <mxGeometry relative="1" as="geometry" />
        </mxCell>
        <mxCell id="4nwm7U9i_mTn2Jjd7FYN-26" value="&amp;nbsp;Warehouse Approves" style="rhombus;whiteSpace=wrap;html=1;" vertex="1" parent="1">
          <mxGeometry x="60" y="540" width="110" height="90" as="geometry" />
        </mxCell>
        <mxCell id="4nwm7U9i_mTn2Jjd7FYN-42" style="edgeStyle=orthogonalEdgeStyle;rounded=0;orthogonalLoop=1;jettySize=auto;html=1;entryX=0;entryY=0.5;entryDx=0;entryDy=0;" edge="1" parent="1" source="4nwm7U9i_mTn2Jjd7FYN-33" target="4nwm7U9i_mTn2Jjd7FYN-26">
          <mxGeometry relative="1" as="geometry">
            <Array as="points">
              <mxPoint x="115" y="770" />
              <mxPoint x="35" y="770" />
              <mxPoint x="35" y="585" />
            </Array>
          </mxGeometry>
        </mxCell>
        <mxCell id="4nwm7U9i_mTn2Jjd7FYN-33" value="Procure RawÂ  Materials" style="points=[[0.25,0,0],[0.5,0,0],[0.75,0,0],[1,0.25,0],[1,0.5,0],[1,0.75,0],[0.75,1,0],[0.5,1,0],[0.25,1,0],[0,0.75,0],[0,0.5,0],[0,0.25,0]];shape=mxgraph.bpmn.task;whiteSpace=wrap;rectStyle=rounded;size=10;taskMarker=abstract;isLoopSub=1;" vertex="1" parent="1">
          <mxGeometry x="55" y="670" width="120" height="80" as="geometry" />
        </mxCell>
        <mxCell id="4nwm7U9i_mTn2Jjd7FYN-35" value="No" style="text;html=1;align=center;verticalAlign=middle;resizable=0;points=[];autosize=1;strokeColor=none;fillColor=none;" vertex="1" parent="1">
          <mxGeometry x="110" y="630" width="40" height="30" as="geometry" />
        </mxCell>
        <mxCell id="4nwm7U9i_mTn2Jjd7FYN-40" value="" style="edgeStyle=orthogonalEdgeStyle;rounded=0;orthogonalLoop=1;jettySize=auto;html=1;" edge="1" parent="1" source="4nwm7U9i_mTn2Jjd7FYN-37" target="4nwm7U9i_mTn2Jjd7FYN-39">
          <mxGeometry relative="1" as="geometry" />
        </mxCell>
        <mxCell id="4nwm7U9i_mTn2Jjd7FYN-37" value="Create Production Plan based on Time DeadLine" style="whiteSpace=wrap;html=1;" vertex="1" parent="1">
          <mxGeometry x="245" y="555" width="120" height="60" as="geometry" />
        </mxCell>
        <mxCell id="4nwm7U9i_mTn2Jjd7FYN-44" style="edgeStyle=orthogonalEdgeStyle;rounded=0;orthogonalLoop=1;jettySize=auto;html=1;entryX=0;entryY=0.5;entryDx=0;entryDy=0;entryPerimeter=0;" edge="1" parent="1" source="4nwm7U9i_mTn2Jjd7FYN-39" target="4nwm7U9i_mTn2Jjd7FYN-43">
          <mxGeometry relative="1" as="geometry" />
        </mxCell>
        <mxCell id="4nwm7U9i_mTn2Jjd7FYN-39" value="Inform Production dept" style="whiteSpace=wrap;html=1;" vertex="1" parent="1">
          <mxGeometry x="445" y="555" width="120" height="60" as="geometry" />
        </mxCell>
        <mxCell id="4nwm7U9i_mTn2Jjd7FYN-46" value="" style="edgeStyle=orthogonalEdgeStyle;rounded=0;orthogonalLoop=1;jettySize=auto;html=1;" edge="1" parent="1" source="4nwm7U9i_mTn2Jjd7FYN-43" target="4nwm7U9i_mTn2Jjd7FYN-45">
          <mxGeometry relative="1" as="geometry" />
        </mxCell>
        <mxCell id="4nwm7U9i_mTn2Jjd7FYN-43" value="Production Happens" style="points=[[0.25,0,0],[0.5,0,0],[0.75,0,0],[1,0.25,0],[1,0.5,0],[1,0.75,0],[0.75,1,0],[0.5,1,0],[0.25,1,0],[0,0.75,0],[0,0.5,0],[0,0.25,0]];shape=mxgraph.bpmn.task;whiteSpace=wrap;rectStyle=rounded;size=10;taskMarker=abstract;isLoopSub=1;" vertex="1" parent="1">
          <mxGeometry x="640" y="545" width="120" height="80" as="geometry" />
        </mxCell>
        <mxCell id="4nwm7U9i_mTn2Jjd7FYN-47" style="edgeStyle=orthogonalEdgeStyle;rounded=0;orthogonalLoop=1;jettySize=auto;html=1;" edge="1" parent="1" source="4nwm7U9i_mTn2Jjd7FYN-45">
          <mxGeometry relative="1" as="geometry">
            <mxPoint x="600" y="580" as="targetPoint" />
          </mxGeometry>
        </mxCell>
        <mxCell id="4nwm7U9i_mTn2Jjd7FYN-50" value="" style="edgeStyle=orthogonalEdgeStyle;rounded=0;orthogonalLoop=1;jettySize=auto;html=1;" edge="1" parent="1" source="4nwm7U9i_mTn2Jjd7FYN-45" target="4nwm7U9i_mTn2Jjd7FYN-49">
          <mxGeometry relative="1" as="geometry" />
        </mxCell>
        <mxCell id="4nwm7U9i_mTn2Jjd7FYN-45" value="If sale order Finished" style="rhombus;whiteSpace=wrap;html=1;" vertex="1" parent="1">
          <mxGeometry x="660" y="705" width="80" height="80" as="geometry" />
        </mxCell>
        <mxCell id="4nwm7U9i_mTn2Jjd7FYN-48" value="No" style="text;html=1;align=center;verticalAlign=middle;resizable=0;points=[];autosize=1;strokeColor=none;fillColor=none;" vertex="1" parent="1">
          <mxGeometry x="620" y="705" width="40" height="30" as="geometry" />
        </mxCell>
        <mxCell id="4nwm7U9i_mTn2Jjd7FYN-52" value="" style="edgeStyle=orthogonalEdgeStyle;rounded=0;orthogonalLoop=1;jettySize=auto;html=1;" edge="1" parent="1" source="4nwm7U9i_mTn2Jjd7FYN-49" target="4nwm7U9i_mTn2Jjd7FYN-51">
          <mxGeometry relative="1" as="geometry" />
        </mxCell>
        <mxCell id="4nwm7U9i_mTn2Jjd7FYN-49" value="Send Products to Product Warehouse" style="whiteSpace=wrap;html=1;" vertex="1" parent="1">
          <mxGeometry x="640" y="830" width="120" height="60" as="geometry" />
        </mxCell>
        <mxCell id="4nwm7U9i_mTn2Jjd7FYN-54" value="" style="edgeStyle=orthogonalEdgeStyle;rounded=0;orthogonalLoop=1;jettySize=auto;html=1;" edge="1" parent="1" source="4nwm7U9i_mTn2Jjd7FYN-51" target="4nwm7U9i_mTn2Jjd7FYN-53">
          <mxGeometry relative="1" as="geometry" />
        </mxCell>
        <mxCell id="4nwm7U9i_mTn2Jjd7FYN-51" value="Product Wh Recieves Products&amp;nbsp;" style="whiteSpace=wrap;html=1;" vertex="1" parent="1">
          <mxGeometry x="440" y="830" width="120" height="60" as="geometry" />
        </mxCell>
        <mxCell id="4nwm7U9i_mTn2Jjd7FYN-56" value="" style="edgeStyle=orthogonalEdgeStyle;rounded=0;orthogonalLoop=1;jettySize=auto;html=1;" edge="1" parent="1" source="4nwm7U9i_mTn2Jjd7FYN-53" target="4nwm7U9i_mTn2Jjd7FYN-55">
          <mxGeometry relative="1" as="geometry" />
        </mxCell>
        <mxCell id="4nwm7U9i_mTn2Jjd7FYN-53" value="Warehouse Creates Shipment And Informs Sale Dept" style="whiteSpace=wrap;html=1;" vertex="1" parent="1">
          <mxGeometry x="290" y="705" width="120" height="60" as="geometry" />
        </mxCell>
        <mxCell id="4nwm7U9i_mTn2Jjd7FYN-58" value="" style="edgeStyle=orthogonalEdgeStyle;rounded=0;orthogonalLoop=1;jettySize=auto;html=1;" edge="1" parent="1" source="4nwm7U9i_mTn2Jjd7FYN-55" target="4nwm7U9i_mTn2Jjd7FYN-57">
          <mxGeometry relative="1" as="geometry" />
        </mxCell>
        <mxCell id="4nwm7U9i_mTn2Jjd7FYN-55" value="Shipment Will be send to customer" style="whiteSpace=wrap;html=1;" vertex="1" parent="1">
          <mxGeometry x="140" y="860" width="120" height="60" as="geometry" />
        </mxCell>
        <mxCell id="4nwm7U9i_mTn2Jjd7FYN-57" value="End" style="ellipse;whiteSpace=wrap;html=1;" vertex="1" parent="1">
          <mxGeometry x="140" y="1000" width="50" height="40" as="geometry" />
        </mxCell>
      </root>
    </mxGraphModel>
  </diagram>
</mxfile>
